<svg width="390" height="70" viewBox="0 0 390 70" fill="none" xmlns="http://www.w3.org/2000/svg">
<path d="M55.952 18.696V18.984C55.952 19.56 55.76 20.104 55.376 20.616H68.624C68.176 21.256 67.504 21.576 66.608 21.576H39.152V22.056H31.856V23.496H28.592V25.416H31.856V26.856H30.992V28.296H30.608V28.68H56.144C56.784 28.68 57.328 28.872 57.776 29.256H57.968C58.288 29.512 58.544 29.832 58.736 30.216H58.16C58.352 30.472 58.448 30.824 58.448 31.272V32.136H58.064V32.616H60.56V34.536H58.352V35.496H58.928V36.936H59.216V37.416H60.08V38.856H58.64V39.336H53.744V41.256H52.592V42.696H59.888V44.616H57.2V45.768C57.2 46.088 57.168 46.344 57.104 46.536H56.912C56.656 47.24 56.272 47.72 55.76 47.976H53.84C53.52 48.232 53.072 48.36 52.496 48.36H26.96V49.416H29.84V50.376H34.16V51.816H25.136V52.776H33.392V54.216H27.152V54.696H31.952V56.616H29.264V58.536H30.512V59.016H29.936V60.936H31.472V61.416H30.8V61.896H29.456V62.856H30.8V63.816H29.456V65.256H33.968V65.736H36.944V66.408C36.944 66.472 36.912 66.536 36.848 66.6C36.848 66.6 36.848 66.632 36.848 66.696H44.912C44.912 66.888 44.88 67.048 44.816 67.176H31.376C31.248 67.752 30.896 68.232 30.32 68.616H37.232C36.912 68.872 36.464 69 35.888 69H17.552C16.976 69 16.528 68.872 16.208 68.616H9.2C8.752 68.296 8.4 67.816 8.144 67.176H21.488C21.488 66.984 21.456 66.824 21.392 66.696H13.424V65.736H10.448V65.256H5.936V63.816H7.28V62.856H5.936V61.896H7.28V61.416H7.952V60.936H6.416V59.016H6.992V58.536H5.744V56.616H8.432V54.696H3.632V54.216H9.872V52.776H1.616V51.816H10.64V50.376H6.32V49.416H3.44V47.976H5.36V46.536H5.552V44.616H8.24V42.696H0.944V41.256H2.096V39.336H6.992V38.856H8.432V37.416H7.568V36.936H7.28V35.496H6.704V34.536H8.912V32.616H6.416V32.136H6.8V30.216H7.28V29.256H7.088V28.296H7.472V26.856H8.336V25.416H5.072V23.496H8.336V22.056H15.632V20.616H2.384V18.696H16.976V17.256H2.864V16.296H3.248V15.336H11.408V13.416H7.856V11.496H9.488V9.576H6.992V7.65599H7.28V6.216H6.416V4.776H6.896V4.392C6.896 4.136 6.928 3.944 6.992 3.816H3.152C3.216 3.496 3.312 3.24 3.44 3.048C3.632 2.792 3.824 2.568 4.016 2.376H3.248C3.76 1.992 4.304 1.8 4.88 1.8H53.264C53.904 1.8 54.448 1.992 54.896 2.376H55.664C56.112 2.696 56.432 3.176 56.624 3.816H60.368C60.432 3.944 60.464 4.136 60.464 4.392V4.776H59.984V6.216H60.848V7.65599H60.56V9.576H63.056V11.496H61.424V13.416H64.976V15.336H56.816V16.296H56.432V17.256H70.544V18.696H55.952ZM126.097 41.256C126.161 41.576 126.193 41.896 126.193 42.216C126.193 42.536 126.193 42.856 126.193 43.176H119.377V44.136H115.441V45.096H119.185V45.576H114.865V47.016H112.465V47.496H117.841C117.841 47.688 117.809 47.848 117.745 47.976H117.457V48.456H118.321V48.552C118.321 48.808 118.289 49.096 118.225 49.416C118.225 49.736 118.193 50.056 118.128 50.376H117.457L117.169 52.296H118.609C118.609 52.552 118.545 52.872 118.417 53.256H118.128C118.065 53.512 118.001 53.768 117.937 54.024C117.873 54.216 117.809 54.44 117.745 54.696H118.513C118.449 55.016 118.353 55.336 118.225 55.656C118.097 55.976 117.969 56.296 117.841 56.616H116.401L116.017 57.576H116.209C116.081 57.832 116.017 57.992 116.017 58.056H115.633C115.377 58.696 115.025 59.336 114.576 59.976H114.769C114.705 60.104 114.609 60.264 114.481 60.456C114.353 60.648 114.225 60.808 114.097 60.936H114.001L112.849 62.376C112.785 62.44 112.721 62.504 112.657 62.568C112.593 62.632 112.497 62.728 112.368 62.856H111.889C111.633 63.112 111.377 63.368 111.121 63.624C110.865 63.816 110.577 64.04 110.257 64.296H107.377L105.361 65.736H105.745C105.617 65.8 105.489 65.864 105.361 65.928C105.233 65.992 105.105 66.088 104.977 66.216H104.305C104.177 66.28 104.017 66.344 103.825 66.408C103.633 66.472 103.473 66.568 103.345 66.696H108.529C108.209 66.888 107.857 67.08 107.472 67.272C107.089 67.4 106.705 67.528 106.321 67.656H104.689C104.241 67.848 103.761 68.04 103.249 68.232C102.737 68.36 102.225 68.488 101.713 68.616H102.097C101.329 68.808 100.529 68.968 99.6965 69.096C98.8645 69.288 98.0005 69.448 97.1045 69.576H100.081C99.0565 69.704 98.0005 69.8 96.9125 69.864C95.8245 69.928 94.7045 69.96 93.5525 69.96C92.3365 69.96 91.1845 69.928 90.0965 69.864C89.0725 69.8 88.0165 69.704 86.9285 69.576H83.8565C83.0245 69.448 82.1605 69.288 81.2645 69.096C80.4325 68.968 79.6325 68.808 78.8645 68.616H78.5765C78.0645 68.488 77.5525 68.36 77.0405 68.232C76.5925 68.04 76.1125 67.848 75.6005 67.656H77.1365C76.8165 67.528 76.4645 67.4 76.0805 67.272C75.6965 67.08 75.3445 66.888 75.0245 66.696H69.8405L68.9765 66.216H69.6485L68.7845 65.736H68.4005C67.6325 65.224 66.9605 64.744 66.3845 64.296H69.2645C69.0085 64.04 68.7525 63.816 68.4965 63.624C68.2405 63.368 67.9845 63.112 67.7285 62.856H68.2085C68.1445 62.728 68.0805 62.632 68.0165 62.568C67.9525 62.504 67.8565 62.44 67.7285 62.376L66.5765 60.936H66.6725L66.0005 59.976H65.8085C65.3605 59.336 65.0085 58.696 64.7525 58.056H65.0405C64.9125 57.8 64.8485 57.64 64.8485 57.576H64.5605L64.1765 56.616H65.6165C65.5525 56.296 65.4565 55.976 65.3285 55.656C65.2005 55.336 65.0725 55.016 64.9445 54.696H64.1765C64.1125 54.44 64.0485 54.216 63.9845 54.024C63.9205 53.768 63.8565 53.512 63.7925 53.256H63.2165L62.9285 52.296H61.9685L61.6805 50.376H62.6405C62.5765 50.056 62.5125 49.736 62.4485 49.416C62.4485 49.096 62.4485 48.808 62.4485 48.552V48.456H60.7205V47.976H60.2405C60.2405 47.848 60.2085 47.752 60.1445 47.688C60.1445 47.624 60.1445 47.56 60.1445 47.496H65.5205C65.5205 47.304 65.4885 47.144 65.4245 47.016H60.0485V45.576H62.3525V45.096H63.5045V44.136H65.5205V43.176H59.6645C59.6645 42.856 59.6645 42.536 59.6645 42.216C59.6645 41.896 59.6965 41.576 59.7605 41.256H58.5125V40.296H68.0165C68.0805 40.104 68.1125 39.848 68.1125 39.528V38.856H65.5205C65.5205 38.6 65.5205 38.376 65.5205 38.184C65.5845 37.928 65.6165 37.672 65.6165 37.416H66.5765L66.8645 35.496H63.6965C63.7605 35.24 63.8245 35.016 63.8885 34.824C63.9525 34.568 64.0165 34.312 64.0805 34.056H63.4085C63.5365 33.736 63.6325 33.416 63.6965 33.096C63.8245 32.712 63.9525 32.392 64.0805 32.136H64.1765C64.2405 32.008 64.3045 31.848 64.3685 31.656C64.4325 31.464 64.4965 31.304 64.5605 31.176H64.4645C64.4645 31.112 64.5285 30.952 64.6565 30.696H65.1365C65.3925 30.056 65.7445 29.416 66.1925 28.776H64.2725L64.8485 27.816H68.4005C68.4645 27.688 68.5925 27.528 68.7845 27.336H61.7765C61.9045 27.08 62.0645 26.856 62.2565 26.664C62.5125 26.408 62.7365 26.152 62.9285 25.896H65.1365C65.4565 25.576 65.7765 25.256 66.0965 24.936C66.4805 24.552 66.8325 24.232 67.1525 23.976H71.5685C72.1445 23.464 72.8165 22.984 73.5845 22.536H75.4085C75.6645 22.344 75.9205 22.184 76.1765 22.056C76.4965 21.864 76.7845 21.704 77.0405 21.576H71.3765C71.9525 21.256 72.6565 20.936 73.4885 20.616H76.0805C77.5525 20.04 79.0885 19.56 80.6885 19.176H77.8085C80.9445 18.472 84.2725 18.12 87.7925 18.12C91.3125 18.12 94.6405 18.472 97.7765 19.176H100.753C102.353 19.56 103.857 20.04 105.265 20.616H102.577C103.409 20.936 104.113 21.256 104.689 21.576H110.353C110.673 21.704 110.961 21.864 111.217 22.056C111.537 22.184 111.825 22.344 112.081 22.536H110.257L112.273 23.976H107.857C108.241 24.232 108.593 24.552 108.913 24.936C109.297 25.256 109.649 25.576 109.969 25.896H107.761C107.953 26.152 108.145 26.408 108.337 26.664C108.593 26.856 108.785 27.08 108.913 27.336H116.017L116.305 27.816H112.849L113.425 28.776H115.345C115.793 29.416 116.145 30.056 116.401 30.696H115.92C116.049 30.952 116.113 31.112 116.113 31.176H116.305L116.689 32.136H116.593C116.721 32.392 116.849 32.712 116.977 33.096C117.105 33.416 117.201 33.736 117.265 34.056H118.225L118.513 35.496H117.937C118.065 35.752 118.128 36.072 118.128 36.456C118.193 36.776 118.257 37.096 118.321 37.416H119.089C119.153 37.672 119.185 37.928 119.185 38.184C119.185 38.376 119.217 38.6 119.281 38.856H115.537V39.528C115.537 39.848 115.569 40.104 115.633 40.296H113.712V41.256H126.097ZM89.2325 37.416C89.1685 37.672 89.1045 37.928 89.0405 38.184C89.0405 38.376 89.0405 38.6 89.0405 38.856H91.7285C91.6645 39.048 91.6325 39.24 91.6325 39.432C91.6325 39.624 91.6325 39.816 91.6325 40.008V40.296H92.0165V40.008C92.0165 39.816 91.9845 39.624 91.9205 39.432C91.9205 39.24 91.9205 39.048 91.9205 38.856H95.6645C95.6645 38.6 95.6325 38.376 95.5685 38.184C95.5685 37.928 95.5685 37.672 95.5685 37.416H94.8005C94.7365 37.032 94.6405 36.68 94.5125 36.36C94.4485 36.04 94.3525 35.752 94.2245 35.496H94.8965C94.6405 34.92 94.2565 34.44 93.7445 34.056H92.7845C92.1445 33.672 91.3125 33.48 90.2885 33.48C89.2645 33.48 88.4645 33.672 87.8885 34.056H88.5605C88.3045 34.248 88.0805 34.472 87.8885 34.728C87.6965 34.92 87.5365 35.176 87.4085 35.496H90.5765C90.5125 35.752 90.4165 36.04 90.2885 36.36C90.2245 36.68 90.1605 37.032 90.0965 37.416H89.2325ZM95.7605 43.176H102.577V41.256H90.1925C90.1285 41 90.0965 40.68 90.0965 40.296H82.1285C82.1285 40.68 82.0965 41 82.0325 41.256H83.2805V43.176H89.1365V44.136H87.0245V45.096H85.8725V45.576H83.5685C83.5685 45.832 83.5685 46.088 83.5685 46.344C83.6325 46.536 83.6645 46.76 83.6645 47.016H91.2485V45.576H95.5685V45.096H91.8245V44.136H95.7605V43.176ZM94.2245 47.976V47.496H83.7605V47.976H84.2405V48.072C84.2405 48.136 84.2405 48.2 84.2405 48.264C84.3045 48.328 84.3365 48.392 84.3365 48.456H85.9685C86.0325 48.776 86.0645 49.096 86.0645 49.416C86.0645 49.736 86.0965 50.056 86.1605 50.376H85.2005C85.3285 51.208 85.4565 51.848 85.5845 52.296H86.6405C86.7685 52.68 86.8965 53 87.0245 53.256H87.6965C88.2725 54.152 89.3605 54.6 90.9605 54.6C92.5605 54.6 93.6485 54.152 94.2245 53.256H94.6085C94.6725 53.128 94.7365 53 94.8005 52.872C94.8645 52.68 94.9285 52.488 94.9925 52.296H93.5525C93.6165 51.976 93.6805 51.688 93.7445 51.432C93.8085 51.112 93.8725 50.76 93.9365 50.376H94.6085C94.6725 50.056 94.7045 49.736 94.7045 49.416C94.7045 49.096 94.7365 48.776 94.8005 48.456H93.9365V47.976H94.2245ZM183.85 41.256C183.914 41.576 183.946 41.896 183.946 42.216C183.946 42.536 183.946 42.856 183.946 43.176H177.13V44.136H173.194V45.096H176.938V45.576H172.618V47.016H170.218V47.496H175.594C175.594 47.688 175.562 47.848 175.498 47.976H175.21V48.456H176.074V48.552C176.074 48.808 176.042 49.096 175.978 49.416C175.978 49.736 175.946 50.056 175.882 50.376H175.21L174.922 52.296H176.362C176.362 52.552 176.298 52.872 176.17 53.256H175.882C175.818 53.512 175.754 53.768 175.69 54.024C175.626 54.216 175.562 54.44 175.498 54.696H176.266C176.202 55.016 176.106 55.336 175.978 55.656C175.85 55.976 175.722 56.296 175.594 56.616H174.154L173.77 57.576H173.962C173.834 57.832 173.77 57.992 173.77 58.056H173.386C173.13 58.696 172.778 59.336 172.33 59.976H172.522C172.458 60.104 172.362 60.264 172.234 60.456C172.106 60.648 171.978 60.808 171.85 60.936H171.754L170.602 62.376C170.538 62.44 170.474 62.504 170.41 62.568C170.346 62.632 170.25 62.728 170.122 62.856H169.642C169.386 63.112 169.13 63.368 168.874 63.624C168.618 63.816 168.33 64.04 168.01 64.296H165.13L163.114 65.736H163.498C163.37 65.8 163.242 65.864 163.114 65.928C162.986 65.992 162.858 66.088 162.73 66.216H162.058C161.93 66.28 161.77 66.344 161.578 66.408C161.386 66.472 161.226 66.568 161.098 66.696H166.282C165.962 66.888 165.61 67.08 165.226 67.272C164.842 67.4 164.458 67.528 164.074 67.656H162.442C161.994 67.848 161.514 68.04 161.002 68.232C160.49 68.36 159.978 68.488 159.466 68.616H159.85C159.082 68.808 158.282 68.968 157.45 69.096C156.618 69.288 155.754 69.448 154.858 69.576H157.834C156.81 69.704 155.754 69.8 154.666 69.864C153.578 69.928 152.458 69.96 151.306 69.96C150.09 69.96 148.938 69.928 147.85 69.864C146.826 69.8 145.77 69.704 144.682 69.576H141.61C140.778 69.448 139.914 69.288 139.018 69.096C138.186 68.968 137.386 68.808 136.618 68.616H136.33C135.818 68.488 135.306 68.36 134.794 68.232C134.346 68.04 133.866 67.848 133.354 67.656H134.89C134.57 67.528 134.218 67.4 133.834 67.272C133.45 67.08 133.098 66.888 132.778 66.696H127.594L126.73 66.216H127.402L126.538 65.736H126.154C125.386 65.224 124.714 64.744 124.138 64.296H127.018C126.762 64.04 126.506 63.816 126.25 63.624C125.994 63.368 125.738 63.112 125.482 62.856H125.962C125.898 62.728 125.834 62.632 125.77 62.568C125.706 62.504 125.61 62.44 125.482 62.376L124.33 60.936H124.426L123.754 59.976H123.562C123.114 59.336 122.762 58.696 122.506 58.056H122.794C122.666 57.8 122.602 57.64 122.602 57.576H122.314L121.93 56.616H123.37C123.306 56.296 123.21 55.976 123.082 55.656C122.954 55.336 122.826 55.016 122.698 54.696H121.93C121.866 54.44 121.802 54.216 121.738 54.024C121.674 53.768 121.61 53.512 121.546 53.256H120.97L120.682 52.296H119.722L119.434 50.376H120.394C120.33 50.056 120.266 49.736 120.202 49.416C120.202 49.096 120.202 48.808 120.202 48.552V48.456H118.474V47.976H117.994C117.994 47.848 117.962 47.752 117.898 47.688C117.898 47.624 117.898 47.56 117.898 47.496H123.274C123.274 47.304 123.242 47.144 123.178 47.016H117.802V45.576H120.106V45.096H121.258V44.136H123.274V43.176H117.418C117.418 42.856 117.418 42.536 117.418 42.216C117.418 41.896 117.45 41.576 117.514 41.256H116.266V40.296H125.77C125.834 40.104 125.866 39.848 125.866 39.528V38.856H123.274C123.274 38.6 123.274 38.376 123.274 38.184C123.338 37.928 123.37 37.672 123.37 37.416H124.33L124.618 35.496H121.45C121.514 35.24 121.578 35.016 121.642 34.824C121.706 34.568 121.77 34.312 121.834 34.056H121.162C121.29 33.736 121.386 33.416 121.45 33.096C121.578 32.712 121.706 32.392 121.834 32.136H121.93C121.994 32.008 122.058 31.848 122.122 31.656C122.186 31.464 122.25 31.304 122.314 31.176H122.218C122.218 31.112 122.282 30.952 122.41 30.696H122.89C123.146 30.056 123.498 29.416 123.946 28.776H122.026L122.602 27.816H126.154C126.218 27.688 126.346 27.528 126.538 27.336H119.53C119.658 27.08 119.818 26.856 120.01 26.664C120.266 26.408 120.49 26.152 120.682 25.896H122.89C123.21 25.576 123.53 25.256 123.85 24.936C124.234 24.552 124.586 24.232 124.906 23.976H129.322C129.898 23.464 130.57 22.984 131.338 22.536H133.162C133.418 22.344 133.674 22.184 133.93 22.056C134.25 21.864 134.538 21.704 134.794 21.576H129.13C129.706 21.256 130.41 20.936 131.242 20.616H133.834C135.306 20.04 136.842 19.56 138.442 19.176H135.562C138.698 18.472 142.026 18.12 145.546 18.12C149.066 18.12 152.394 18.472 155.53 19.176H158.506C160.106 19.56 161.61 20.04 163.018 20.616H160.33C161.162 20.936 161.866 21.256 162.442 21.576H168.106C168.426 21.704 168.714 21.864 168.97 22.056C169.29 22.184 169.578 22.344 169.834 22.536H168.01L170.026 23.976H165.61C165.994 24.232 166.346 24.552 166.666 24.936C167.05 25.256 167.402 25.576 167.722 25.896H165.514C165.706 26.152 165.898 26.408 166.09 26.664C166.346 26.856 166.538 27.08 166.666 27.336H173.77L174.058 27.816H170.602L171.178 28.776H173.098C173.546 29.416 173.898 30.056 174.154 30.696H173.674C173.802 30.952 173.866 31.112 173.866 31.176H174.058L174.442 32.136H174.346C174.474 32.392 174.602 32.712 174.73 33.096C174.858 33.416 174.954 33.736 175.018 34.056H175.978L176.266 35.496H175.69C175.818 35.752 175.882 36.072 175.882 36.456C175.946 36.776 176.01 37.096 176.074 37.416H176.842C176.906 37.672 176.938 37.928 176.938 38.184C176.938 38.376 176.97 38.6 177.034 38.856H173.29V39.528C173.29 39.848 173.322 40.104 173.386 40.296H171.466V41.256H183.85ZM146.986 37.416C146.922 37.672 146.858 37.928 146.794 38.184C146.794 38.376 146.794 38.6 146.794 38.856H149.482C149.418 39.048 149.386 39.24 149.386 39.432C149.386 39.624 149.386 39.816 149.386 40.008V40.296H149.77V40.008C149.77 39.816 149.738 39.624 149.674 39.432C149.674 39.24 149.674 39.048 149.674 38.856H153.418C153.418 38.6 153.386 38.376 153.322 38.184C153.322 37.928 153.322 37.672 153.322 37.416H152.554C152.49 37.032 152.394 36.68 152.266 36.36C152.202 36.04 152.106 35.752 151.978 35.496H152.65C152.394 34.92 152.01 34.44 151.498 34.056H150.538C149.898 33.672 149.066 33.48 148.042 33.48C147.018 33.48 146.218 33.672 145.642 34.056H146.314C146.058 34.248 145.834 34.472 145.642 34.728C145.45 34.92 145.29 35.176 145.162 35.496H148.33C148.266 35.752 148.17 36.04 148.042 36.36C147.978 36.68 147.914 37.032 147.85 37.416H146.986ZM153.514 43.176H160.33V41.256H147.946C147.882 41 147.85 40.68 147.85 40.296H139.882C139.882 40.68 139.85 41 139.786 41.256H141.034V43.176H146.89V44.136H144.778V45.096H143.626V45.576H141.322C141.322 45.832 141.322 46.088 141.322 46.344C141.386 46.536 141.418 46.76 141.418 47.016H149.002V45.576H153.322V45.096H149.578V44.136H153.514V43.176ZM151.978 47.976V47.496H141.514V47.976H141.994V48.072C141.994 48.136 141.994 48.2 141.994 48.264C142.058 48.328 142.09 48.392 142.09 48.456H143.722C143.786 48.776 143.818 49.096 143.818 49.416C143.818 49.736 143.85 50.056 143.914 50.376H142.954C143.082 51.208 143.21 51.848 143.338 52.296H144.394C144.522 52.68 144.65 53 144.778 53.256H145.45C146.026 54.152 147.114 54.6 148.714 54.6C150.314 54.6 151.402 54.152 151.978 53.256H152.362C152.426 53.128 152.49 53 152.554 52.872C152.618 52.68 152.682 52.488 152.746 52.296H151.306C151.37 51.976 151.434 51.688 151.498 51.432C151.562 51.112 151.626 50.76 151.69 50.376H152.362C152.426 50.056 152.458 49.736 152.458 49.416C152.458 49.096 152.49 48.776 152.554 48.456H151.69V47.976H151.978ZM182.852 69C182.148 69 181.54 68.744 181.028 68.232C180.516 67.72 180.26 67.112 180.26 66.408V4.392C180.26 3.688 180.516 3.08 181.028 2.568C181.54 2.056 182.148 1.8 182.852 1.8H231.236C231.94 1.8 232.548 2.056 233.06 2.568C233.572 3.08 233.828 3.688 233.828 4.392V18.984C233.828 19.688 233.572 20.296 233.06 20.808C232.548 21.32 231.94 21.576 231.236 21.576H203.78V28.68H229.316C230.02 28.68 230.628 28.936 231.14 29.448C231.652 29.96 231.908 30.568 231.908 31.272V45.768C231.908 46.472 231.652 47.08 231.14 47.592C230.628 48.104 230.02 48.36 229.316 48.36H203.78V66.408C203.78 67.112 203.524 67.72 203.012 68.232C202.5 68.744 201.892 69 201.188 69H182.852ZM262.597 69.96C254.213 69.96 247.525 67.912 242.532 63.816C237.604 59.656 235.14 53.096 235.14 44.136C235.14 44.008 235.14 43.88 235.14 43.752C235.14 43.624 235.14 43.528 235.14 43.464C235.268 37.96 236.452 33.32 238.692 29.544C240.996 25.768 244.164 22.92 248.196 21C252.293 19.08 257.061 18.12 262.501 18.12C268.773 18.12 273.925 19.336 277.957 21.768C281.989 24.136 284.965 27.304 286.885 31.272C288.869 35.176 289.861 39.496 289.861 44.232V47.112C289.861 47.816 289.605 48.424 289.093 48.936C288.581 49.448 287.973 49.704 287.269 49.704H258.66C258.66 49.768 258.66 49.832 258.66 49.896C258.66 49.96 258.66 50.056 258.66 50.184C258.66 51.464 258.757 52.552 258.949 53.448C259.205 54.28 259.62 54.92 260.196 55.368C260.773 55.816 261.509 56.04 262.405 56.04C262.789 56.04 263.109 55.976 263.365 55.848C263.685 55.72 263.973 55.528 264.229 55.272C264.549 54.952 264.869 54.632 265.189 54.312C265.765 53.736 266.245 53.384 266.628 53.256C267.013 53.064 267.589 52.968 268.357 52.968H286.501C287.141 52.968 287.653 53.16 288.037 53.544C288.485 53.928 288.677 54.44 288.613 55.08C288.549 56.296 287.973 57.768 286.885 59.496C285.861 61.16 284.292 62.792 282.181 64.392C280.069 65.992 277.381 67.336 274.117 68.424C270.853 69.448 267.013 69.96 262.597 69.96ZM258.66 37.704H266.341V37.608C266.341 36.2 266.181 35.048 265.861 34.152C265.605 33.256 265.189 32.616 264.613 32.232C264.036 31.784 263.333 31.56 262.501 31.56C261.669 31.56 260.965 31.784 260.389 32.232C259.812 32.616 259.365 33.256 259.045 34.152C258.788 35.048 258.66 36.2 258.66 37.608V37.704ZM316.169 69.96C311.561 69.96 307.625 69.512 304.361 68.616C301.161 67.656 298.537 66.472 296.489 65.064C294.505 63.592 293.033 62.088 292.073 60.552C291.113 58.952 290.601 57.512 290.537 56.232C290.473 55.528 290.665 54.92 291.113 54.408C291.625 53.896 292.201 53.64 292.841 53.64H309.545C309.609 53.64 309.673 53.64 309.737 53.64C309.801 53.64 309.865 53.64 309.929 53.64C310.761 53.704 311.497 53.992 312.137 54.504C312.841 54.952 313.545 55.4 314.249 55.848C315.017 56.296 315.881 56.52 316.841 56.52C317.353 56.52 317.833 56.392 318.281 56.136C318.793 55.88 319.049 55.528 319.049 55.08C319.049 54.504 318.857 53.992 318.473 53.544C318.153 53.096 317.289 52.648 315.881 52.2C314.537 51.688 312.265 51.144 309.065 50.568C306.121 49.992 303.305 49.096 300.617 47.88C297.929 46.664 295.721 44.968 293.993 42.792C292.329 40.616 291.497 37.864 291.497 34.536C291.497 31.784 292.425 29.16 294.281 26.664C296.137 24.168 298.857 22.12 302.441 20.52C306.089 18.92 310.537 18.12 315.785 18.12C319.753 18.12 323.273 18.568 326.345 19.464C329.417 20.36 332.009 21.512 334.121 22.92C336.297 24.328 337.961 25.832 339.113 27.432C340.265 29.032 340.873 30.504 340.937 31.848C341.001 32.552 340.809 33.16 340.361 33.672C339.913 34.184 339.401 34.44 338.825 34.44H323.657C323.529 34.44 323.369 34.44 323.177 34.44C322.985 34.44 322.825 34.44 322.697 34.44C321.801 34.44 321.001 34.216 320.297 33.768C319.593 33.256 318.889 32.776 318.185 32.328C317.481 31.816 316.649 31.56 315.689 31.56C315.241 31.56 314.793 31.72 314.345 32.04C313.961 32.296 313.769 32.648 313.769 33.096C313.769 33.608 313.961 34.12 314.345 34.632C314.729 35.08 315.657 35.528 317.129 35.976C318.601 36.36 321.001 36.808 324.329 37.32C328.937 37.96 332.617 39.144 335.369 40.872C338.121 42.6 340.073 44.584 341.225 46.824C342.441 49.064 343.049 51.272 343.049 53.448C343.049 56.84 341.993 59.784 339.881 62.28C337.833 64.776 334.793 66.696 330.761 68.04C326.793 69.32 321.929 69.96 316.169 69.96ZM376.067 69C371.459 69 367.331 68.392 363.683 67.176C360.099 65.896 357.251 63.752 355.139 60.744C353.091 57.736 352.067 53.608 352.067 48.36V35.88H344.483C343.779 35.88 343.171 35.624 342.659 35.112C342.147 34.6 341.891 33.992 341.891 33.288V21.672C341.891 20.968 342.147 20.36 342.659 19.848C343.171 19.336 343.779 19.08 344.483 19.08H352.067V3.432C352.067 2.728 352.323 2.12 352.835 1.608C353.347 1.096 353.955 0.839996 354.659 0.839996H371.459C372.163 0.839996 372.771 1.096 373.283 1.608C373.795 2.12 374.051 2.728 374.051 3.432V19.08H386.147C386.851 19.08 387.459 19.336 387.971 19.848C388.483 20.36 388.739 20.968 388.739 21.672V33.288C388.739 33.992 388.483 34.6 387.971 35.112C387.459 35.624 386.851 35.88 386.147 35.88H374.051V46.44C374.051 47.912 374.371 49.096 375.011 49.992C375.715 50.824 376.771 51.24 378.179 51.24H386.915C387.619 51.24 388.227 51.496 388.739 52.008C389.251 52.52 389.507 53.128 389.507 53.832V66.408C389.507 67.112 389.251 67.72 388.739 68.232C388.227 68.744 387.619 69 386.915 69H376.067Z" fill="#F9FAFB"/>
</svg>
