<?xml version="1.0" standalone="no"?>
<!DOCTYPE svg PUBLIC "-//W3C//DTD SVG 20010904//EN"
 "http://www.w3.org/TR/2001/REC-SVG-20010904/DTD/svg10.dtd">
<svg version="1.0" xmlns="http://www.w3.org/2000/svg"
 width="700.000000pt" height="700.000000pt" viewBox="0 0 700.000000 700.000000"
 preserveAspectRatio="xMidYMid meet">
<metadata>
Created by potrace 1.14, written by Peter Selinger 2001-2017
</metadata>
<g transform="translate(0.000000,700.000000) scale(0.100000,-0.100000)"
fill="#000000" stroke="none">
<path d="M290 6973 l-55 -27 33 -4 c39 -4 39 -8 6 -43 -14 -15 -32 -44 -39
-65 l-13 -39 191 -3 192 -2 -3 -50 c-4 -45 -6 -50 -28 -50 -23 0 -24 -3 -24
-74 l0 -75 43 -3 42 -3 1 -72 c1 -55 -2 -73 -12 -73 -11 0 -14 -23 -14 -100
l0 -100 125 0 125 0 0 -100 0 -99 -82 -3 -83 -3 -1 -85 c0 -47 2 -91 4 -97 3
-10 48 -13 178 -13 l174 0 1 -57 c0 -32 1 -77 2 -101 l2 -42 -412 0 -413 0 0
-50 c0 -42 -3 -50 -19 -50 -16 0 -19 -7 -18 -50 l0 -50 709 0 c622 0 708 -2
709 -15 0 -8 1 -33 1 -55 0 -22 -1 -49 -1 -60 -1 -20 -8 -20 -734 -20 l-732 0
0 -97 0 -98 666 -5 665 -5 1 -72 0 -73 -367 0 -368 0 2 -72 1 -73 -165 -5
-165 -5 0 -95 0 -95 164 -5 165 -5 1 -62 c1 -35 -1 -67 -4 -72 -4 -5 -24 -11
-46 -13 l-40 -3 1 -72 c1 -65 0 -73 -17 -73 -11 0 -19 -4 -20 -10 -3 -39 -1
-69 6 -86 5 -10 10 -38 11 -61 2 -39 0 -43 -22 -43 -24 0 -24 -1 -24 -100 0
-93 -1 -100 -20 -100 -15 0 -20 -7 -20 -25 l0 -25 125 0 125 0 1 -30 c0 -16 1
-48 1 -70 0 -22 -1 -53 -1 -70 l-1 -30 -110 0 -110 0 0 -50 c0 -49 1 -50 29
-50 l30 0 -3 -71 c-2 -62 1 -73 16 -77 10 -2 18 -9 17 -16 -4 -30 3 -36 41
-36 25 0 40 -5 41 -12 1 -15 1 -120 0 -130 -1 -5 -32 -8 -71 -8 -68 0 -70 -1
-70 -25 l0 -25 -244 0 c-186 0 -245 -3 -248 -12 -3 -7 -4 -52 -3 -100 l2 -88
-59 0 -58 0 0 -75 0 -75 365 0 c285 0 365 -3 366 -12 0 -7 1 -51 2 -98 l2 -85
-135 -5 -136 -5 1 -98 c0 -60 -4 -97 -10 -97 -7 0 -11 -29 -10 -72 l0 -73 -97
-3 -98 -3 0 -74 0 -75 145 0 145 0 0 -50 0 -50 217 -2 218 -3 0 -72 1 -73
-452 0 -453 0 -3 -22 c-2 -13 -1 -35 1 -51 l3 -27 414 0 414 0 -1 -75 -1 -75
-314 0 -314 0 0 -25 0 -25 240 0 c132 0 240 -3 241 -7 3 -36 4 -171 1 -180 -3
-10 -39 -13 -137 -13 l-132 0 0 -100 1 -100 63 0 c61 0 63 -1 63 -25 0 -21 -5
-25 -30 -25 l-30 0 0 -100 0 -100 78 0 c75 0 79 -1 77 -23 -1 -17 -9 -23 -33
-25 -30 -3 -37 -11 -33 -39 1 -9 -18 -13 -67 -13 l-69 0 -2 -50 -1 -50 68 0
68 0 0 -50 1 -50 -67 0 -67 0 -1 -75 -2 -75 229 0 228 0 -1 -22 c-1 -23 1 -23
149 -28 l150 -5 0 -45 0 -45 403 -3 c232 -1 402 -6 402 -11 0 -5 3 -16 6 -25
6 -15 -57 -16 -665 -16 -369 0 -671 -2 -671 -4 0 -15 34 -77 58 -106 l30 -35
363 -5 c313 -5 370 -8 407 -23 40 -16 114 -17 1025 -15 852 3 985 5 1007 18
23 14 -8 15 -319 18 l-344 2 41 40 c22 22 46 56 52 75 l12 35 676 2 677 3 3
23 3 22 -404 0 -404 0 5 50 5 50 -152 0 -151 0 0 25 0 25 -224 0 -224 0 -4 65
c-1 36 -1 70 0 75 2 6 33 10 68 10 44 0 64 4 65 13 0 6 1 29 2 50 l2 37 -66 0
-67 0 -4 39 c-2 22 -2 45 0 50 2 6 31 11 68 11 63 0 69 3 65 37 -1 8 11 13 34
13 31 0 35 3 35 25 0 25 -1 25 -78 25 l-77 0 0 100 0 100 26 0 c27 0 40 15 32
38 -3 8 -25 12 -64 12 l-59 0 0 100 0 100 134 0 134 0 0 100 1 100 -242 2
c-234 3 -242 4 -242 23 0 19 8 20 315 25 l315 5 0 73 0 72 -417 0 -417 0 2 48
2 47 453 3 452 2 0 75 0 75 -217 2 -218 3 1 47 1 47 -145 3 -146 3 -1 48 c0
27 3 51 6 53 4 2 596 4 1316 4 1286 0 1310 1 1348 20 31 16 59 20 137 20 93 0
99 1 130 29 19 16 44 49 56 74 13 25 28 47 34 49 10 4 13 43 17 181 1 15 14
17 136 17 l135 0 0 100 0 100 -368 0 -368 0 -1 75 -1 75 59 0 59 0 0 100 0
100 245 0 c251 0 251 0 246 38 -1 9 19 12 73 12 l74 0 1 75 1 75 -45 0 c-41 0
-45 2 -45 25 0 16 -6 25 -15 25 -12 0 -15 15 -15 75 l0 75 -29 0 c-28 0 -29 1
-28 50 l2 50 110 0 110 0 0 100 0 100 -127 0 c-127 0 -128 0 -125 23 1 12 11
24 22 27 15 4 19 15 20 45 1 42 -9 108 -20 138 -6 13 -2 17 19 17 26 0 26 1
12 28 -8 15 -25 36 -38 48 -30 26 -118 72 -149 78 -13 3 -609 5 -1324 5 -1293
1 -1301 1 -1302 21 -1 14 4 20 18 20 21 0 21 -1 21 88 l0 62 44 0 44 0 0 75 0
75 -165 0 -165 0 0 100 0 100 165 0 165 0 0 75 0 75 365 0 c375 0 371 0 366
37 -1 10 300 13 1421 15 1333 3 1425 4 1455 20 34 19 83 61 83 72 0 3 -297 6
-660 6 -363 0 -660 2 -660 4 0 3 9 21 21 40 12 21 23 62 26 96 l6 60 733 0
734 0 0 75 0 75 -710 0 -710 0 0 50 c0 43 3 50 20 50 17 0 20 7 20 50 l0 50
410 0 410 0 0 100 0 100 -179 0 -179 0 2 98 1 97 81 3 81 3 0 99 0 99 -126 3
-126 3 0 93 c0 74 3 96 15 102 12 6 16 25 15 77 l0 68 -43 3 c-46 3 -43 -4
-44 100 -1 42 2 48 24 52 24 5 25 10 20 78 -2 22 -2 22 -192 22 -173 0 -191 2
-196 18 -10 32 -37 77 -62 105 -19 20 -35 27 -61 27 -20 0 -62 14 -95 30 l-59
30 -2486 0 -2486 0 -55 -27z"/>
</g>
</svg>
