<svg width="16" height="18" viewBox="0 0 16 18" fill="none" xmlns="http://www.w3.org/2000/svg">
<path d="M1 17V14H15V17" stroke="#6B7280" stroke-linecap="round" stroke-linejoin="round"/>
<path d="M9.98087 3.47914C10.3939 3.77266 10.7291 4.15326 10.9599 4.5908C11.1908 5.02834 11.311 5.51081 11.311 6C11.311 6.48919 11.1908 6.97166 10.9599 7.4092C10.7291 7.84675 10.3939 8.22734 9.98087 8.52086M11.7766 1.5885C12.4709 2.12018 13.0309 2.79229 13.4156 3.5556C13.8003 4.31891 14 5.1541 14 6C14 6.8459 13.8003 7.68109 13.4156 8.4444C13.0309 9.20771 12.4709 9.87982 11.7766 10.4115M3.99522 7.89064H2.66507C2.48868 7.89064 2.31952 7.82425 2.1948 7.70606C2.07007 7.58787 2 7.42757 2 7.26043V4.73957C2 4.57243 2.07007 4.41213 2.1948 4.29394C2.31952 4.17576 2.48868 4.10936 2.66507 4.10936H3.99522L6.32297 1.27339C6.3811 1.1664 6.4777 1.08264 6.59531 1.03725C6.71292 0.991853 6.84379 0.987818 6.96427 1.02587C7.08475 1.06393 7.18689 1.14156 7.25223 1.24474C7.31758 1.34793 7.34182 1.46986 7.32058 1.5885V10.4115C7.34182 10.5301 7.31758 10.6521 7.25223 10.7553C7.18689 10.8584 7.08475 10.9361 6.96427 10.9741C6.84379 11.0122 6.71292 11.0081 6.59531 10.9628C6.4777 10.9174 6.3811 10.8336 6.32297 10.7266L3.99522 7.89064Z" stroke="#6B7280" stroke-linecap="round" stroke-linejoin="round"/>
</svg>
